<?xml version="1.0" encoding="UTF-8" standalone="no"?>
<!-- Created with Inkscape (http://www.inkscape.org/) -->

<svg
   xmlns:dc="http://purl.org/dc/elements/1.1/"
   xmlns:cc="http://creativecommons.org/ns#"
   xmlns:rdf="http://www.w3.org/1999/02/22-rdf-syntax-ns#"
   xmlns:svg="http://www.w3.org/2000/svg"
   xmlns="http://www.w3.org/2000/svg"
   xmlns:sodipodi="http://sodipodi.sourceforge.net/DTD/sodipodi-0.dtd"
   xmlns:inkscape="http://www.inkscape.org/namespaces/inkscape"
   width="116.65631mm"
   height="116.95628mm"
   viewBox="0 0 116.65631 116.95628"
   version="1.1"
   id="svg1779"
   inkscape:version="0.92.3 (2405546, 2018-03-11)"
   sodipodi:docname="FAB_kabar_covidsvg.svg">
  <defs
     id="defs1773" />
  <sodipodi:namedview
     id="base"
     pagecolor="#ffffff"
     bordercolor="#666666"
     borderopacity="1.0"
     inkscape:pageopacity="0.0"
     inkscape:pageshadow="2"
     inkscape:zoom="0.35"
     inkscape:cx="-39.70214"
     inkscape:cy="466.13547"
     inkscape:document-units="mm"
     inkscape:current-layer="layer1"
     showgrid="false"
     fit-margin-left="-0.3"
     fit-margin-top="0"
     fit-margin-right="0"
     fit-margin-bottom="0"
     inkscape:window-width="1366"
     inkscape:window-height="676"
     inkscape:window-x="0"
     inkscape:window-y="27"
     inkscape:window-maximized="1" />
  <metadata
     id="metadata1776">
    <rdf:RDF>
      <cc:Work
         rdf:about="">
        <dc:format>image/svg+xml</dc:format>
        <dc:type
           rdf:resource="http://purl.org/dc/dcmitype/StillImage" />
        <dc:title></dc:title>
      </cc:Work>
    </rdf:RDF>
  </metadata>
  <g
     inkscape:label="Layer 1"
     inkscape:groupmode="layer"
     id="layer1"
     transform="translate(-46.821844,-90.021864)">
    <g
       id="g2414"
       transform="translate(18.255407,59.063447)">
      <path
         id="path5099"
         d="M 145.22275,89.436557 A 58.478134,58.478134 0 0 1 86.74456,147.91469 58.478134,58.478134 0 0 1 28.266437,89.436557 58.478134,58.478134 0 0 1 86.74456,30.958417 a 58.478134,58.478134 0 0 1 58.47819,58.47814 z"
         style="opacity:1;fill:#000000;fill-opacity:1;stroke:none;stroke-width:0.10937814;stroke-miterlimit:4;stroke-dasharray:none;stroke-dashoffset:7.55905533;stroke-opacity:1"
         inkscape:connector-curvature="0" />
      <g
         inkscape:transform-center-y="84.635297"
         inkscape:transform-center-x="-113.97553"
         id="g2349"
         style="fill:#ffffff"
         transform="matrix(0.1211012,0,0,0.1211012,56.093287,57.965039)">
        <g
           id="g2347"
           style="fill:#ffffff">
          <path
             id="path2345"
             d="m 460.8,25.55 c -28.2,-0.1 -51.1,22.8 -51.2,51 0,13.3 5.1,26.1 14.4,35.6 l -93.5,187.1 c -2,-0.3 -4.1,-0.6 -6.2,-0.6 -6.6,0 -13.2,1.3 -19.3,3.8 l -72.6,-81.7 c 4.2,-7.5 6.5,-15.9 6.6,-24.6 0,-28.3 -22.9,-51.2 -51.2,-51.2 -28.3,0 -51.2,22.9 -51.2,51.2 0.1,12.2 4.5,24 12.6,33.2 l -88.9,155.5 c -3,-0.6 -6.1,-0.9 -9.1,-0.9 -28.3,0 -51.2,22.9 -51.2,51.2 0,28.3 22.9,51.2 51.2,51.2 28.3,0 51.2,-22.9 51.2,-51.2 -0.1,-12.2 -4.5,-24 -12.6,-33.2 l 88.8,-155.5 c 9.5,1.9 19.4,0.9 28.3,-2.9 l 72.6,81.7 c -4.2,7.5 -6.4,16 -6.5,24.6 -0.1,28.3 22.8,51.3 51,51.4 28.3,0.1 51.3,-22.8 51.4,-51 0,-13.3 -5.1,-26.2 -14.4,-35.8 l 93.5,-187.1 c 2,0.3 4.1,0.6 6.2,0.6 28.3,0 51.2,-22.9 51.2,-51.2 0,-28.3 -22.8,-51.2 -51.1,-51.2 z"
             inkscape:connector-curvature="0"
             style="fill:#ffffff" />
        </g>
      </g>
    </g>
  </g>
</svg>
