<?xml version="1.0" encoding="UTF-8" standalone="no"?>
<svg
   xmlns:dc="http://purl.org/dc/elements/1.1/"
   xmlns:cc="http://creativecommons.org/ns#"
   xmlns:rdf="http://www.w3.org/1999/02/22-rdf-syntax-ns#"
   xmlns:svg="http://www.w3.org/2000/svg"
   xmlns="http://www.w3.org/2000/svg"
   id="svg8"
   version="1.1"
   viewBox="0 0 87.630074 12.322026"
   height="12.322026mm"
   width="87.630074mm">
  <defs
     id="defs2" />
  <metadata
     id="metadata5">
    <rdf:RDF>
      <cc:Work
         rdf:about="">
        <dc:format>image/svg+xml</dc:format>
        <dc:type
           rdf:resource="http://purl.org/dc/dcmitype/StillImage" />
        <dc:title></dc:title>
      </cc:Work>
    </rdf:RDF>
  </metadata>
  <g
     transform="translate(-60.184962,-25.102233)"
     id="layer1">
    <g
       id="text817"
       style="font-style:normal;font-variant:normal;font-weight:normal;font-stretch:normal;font-size:18.39108467px;line-height:1.25;font-family:'Komika Axis';-inkscape-font-specification:'Komika Axis';letter-spacing:0px;word-spacing:0px;fill:#000000;fill-opacity:1;stroke:none;stroke-width:0.45977709"
       aria-label="kabarcovid">
      <path
         id="path857"
         style="font-style:normal;font-variant:normal;font-weight:bold;font-stretch:normal;font-family:Philosopher;-inkscape-font-specification:Philosopher;stroke-width:0.45977709"
         d="m 64.04709,33.635696 v 3.604653 h -2.390841 v -9.747275 q 0,-0.827599 -0.239084,-1.324158 -0.220693,-0.514951 -1.048292,-0.514951 h -0.183911 v -0.551732 h 2.20693 q 0.478169,0 0.790817,0.128738 0.33104,0.110346 0.51495,0.386212 0.202302,0.275867 0.275867,0.735644 0.07356,0.459777 0.07356,1.140247 v 5.241459 l 2.225321,-2.72188 q 0.275867,-0.33104 0.533342,-0.588515 0.275866,-0.275866 0.570123,-0.459777 0.312649,-0.183911 0.680471,-0.275867 0.386212,-0.09195 0.86438,-0.09195 h 0.367822 v 0.478168 q -0.551732,0 -0.993118,0.220693 -0.441386,0.220693 -0.84599,0.698861 l -1.783935,2.170148 2.446014,3.236831 q 0.478168,0.643688 0.901163,0.974728 0.422995,0.331039 0.809208,0.422995 v 0.441386 q -0.147129,0.07356 -0.533342,0.128737 -0.386213,0.05517 -0.735643,0.05517 -0.772426,0 -1.452896,-0.312649 -0.68047,-0.331039 -1.287376,-1.158638 z" />
      <path
         id="path859"
         style="font-style:normal;font-variant:normal;font-weight:bold;font-stretch:normal;font-family:Philosopher;-inkscape-font-specification:Philosopher;stroke-width:0.45977709"
         d="m 75.630887,33.010399 h -0.275866 q -1.324158,0 -1.912673,0.478169 -0.570123,0.478168 -0.570123,1.452895 0,0.772426 0.312648,1.17703 0.33104,0.386212 0.882772,0.386212 0.422995,0 0.698861,-0.18391 0.294258,-0.183911 0.49656,-0.404604 0.220693,-0.257475 0.367821,-0.606906 z m -1.379331,-4.597771 q 1.802326,0 2.777054,0.956337 0.993118,0.956336 0.993118,2.905791 v 4.965593 H 76.458486 L 75.814798,36.41275 h -0.09195 q -0.202302,0.294257 -0.514951,0.51495 -0.257475,0.202302 -0.68047,0.349431 -0.422995,0.147129 -1.011509,0.147129 -1.52646,0 -2.335668,-0.68047 -0.790817,-0.698862 -0.790817,-1.802327 0,-0.662079 0.220693,-1.158638 0.220693,-0.51495 0.772426,-0.864381 0.570123,-0.367822 1.52646,-0.551733 0.956336,-0.18391 2.446014,-0.18391 h 0.275866 q 0,-1.655198 -0.459777,-2.298886 -0.459777,-0.643688 -1.287376,-0.643688 -0.312648,0 -0.606906,0.07356 -0.275866,0.05517 -0.51495,0.239084 -0.239084,0.183911 -0.422995,0.514951 -0.183911,0.312648 -0.294257,0.827599 h -1.01151 q 0,-0.478169 0.05517,-0.974728 0.07357,-0.496559 0.404604,-0.864381 0.33104,-0.367822 1.085074,-0.496559 0.772426,-0.147129 1.673589,-0.147129 z" />
      <path
         id="path861"
         style="font-style:normal;font-variant:normal;font-weight:bold;font-stretch:normal;font-family:Philosopher;-inkscape-font-specification:Philosopher;stroke-width:0.45977709"
         d="m 82.474096,35.40124 q 0.16552,0.349431 0.404604,0.606906 0.202302,0.220693 0.51495,0.404604 0.312648,0.183911 0.735643,0.183911 0.478169,0 0.809208,-0.275866 0.33104,-0.275867 0.533342,-0.772426 0.220693,-0.496559 0.312648,-1.158638 0.09195,-0.68047 0.09195,-1.471287 0,-0.790817 -0.09195,-1.452896 -0.09195,-0.68047 -0.312648,-1.177029 -0.220693,-0.496559 -0.570124,-0.772426 -0.349431,-0.275866 -0.864381,-0.275866 -0.349431,0 -0.643688,0.09195 -0.275866,0.09196 -0.478168,0.183911 -0.239084,0.128738 -0.441386,0.275867 z m -2.390841,-7.908166 q 0,-0.827599 -0.239084,-1.324158 -0.220693,-0.514951 -1.048292,-0.514951 h -0.183911 v -0.551732 h 2.20693 q 0.478168,0 0.790817,0.128738 0.331039,0.110346 0.51495,0.386212 0.202302,0.275867 0.275866,0.735644 0.07357,0.459777 0.07357,1.140247 v 1.471287 q 0.220693,-0.147129 0.51495,-0.275867 0.257475,-0.09195 0.606906,-0.18391 0.349431,-0.09196 0.809208,-0.09196 0.993118,0 1.728762,0.349431 0.754034,0.34943 1.250593,0.956336 0.49656,0.606906 0.735644,1.434505 0.239084,0.827599 0.239084,1.765544 0,0.937945 -0.239084,1.765544 -0.239084,0.827599 -0.735644,1.434505 -0.478168,0.606905 -1.213811,0.956336 -0.717252,0.349431 -1.673589,0.349431 -0.551732,0 -0.956336,-0.147129 Q 83.136175,37.130002 82.8787,36.9277 82.566051,36.707007 82.38214,36.41275 h -0.09196 l -0.643688,0.827599 h -1.563242 z" />
      <path
         id="path863"
         style="font-style:normal;font-variant:normal;font-weight:bold;font-stretch:normal;font-family:Philosopher;-inkscape-font-specification:Philosopher;stroke-width:0.45977709"
         d="m 94.812215,33.010399 h -0.275866 q -1.324158,0 -1.912673,0.478169 -0.570124,0.478168 -0.570124,1.452895 0,0.772426 0.312649,1.17703 0.331039,0.386212 0.882772,0.386212 0.422995,0 0.698861,-0.18391 0.294258,-0.183911 0.496559,-0.404604 0.220693,-0.257475 0.367822,-0.606906 z m -1.379331,-4.597771 q 1.802326,0 2.777054,0.956337 0.993118,0.956336 0.993118,2.905791 v 4.965593 H 95.639814 L 94.996126,36.41275 h -0.09195 q -0.202302,0.294257 -0.514951,0.51495 -0.257475,0.202302 -0.68047,0.349431 -0.422995,0.147129 -1.01151,0.147129 -1.52646,0 -2.335667,-0.68047 -0.790817,-0.698862 -0.790817,-1.802327 0,-0.662079 0.220693,-1.158638 0.220693,-0.51495 0.772426,-0.864381 0.570123,-0.367822 1.52646,-0.551733 0.956336,-0.18391 2.446014,-0.18391 h 0.275866 q 0,-1.655198 -0.459777,-2.298886 -0.459777,-0.643688 -1.287376,-0.643688 -0.312648,0 -0.606906,0.07356 -0.275866,0.05517 -0.51495,0.239084 -0.239084,0.183911 -0.422995,0.514951 -0.183911,0.312648 -0.294257,0.827599 h -1.01151 q 0,-0.478169 0.05517,-0.974728 0.07357,-0.496559 0.404604,-0.864381 0.33104,-0.367822 1.085074,-0.496559 0.772426,-0.147129 1.673589,-0.147129 z" />
      <path
         id="path865"
         style="font-style:normal;font-variant:normal;font-weight:bold;font-stretch:normal;font-family:Philosopher;-inkscape-font-specification:Philosopher;stroke-width:0.45977709"
         d="m 103.86235,28.412628 q 0.80921,0 1.30577,0.367822 0.16552,0.110346 0.27586,0.257475 0.11035,0.147129 0.18391,0.275866 0.092,0.128738 0.12874,0.220693 0.0368,0.07357 0.0368,0.07357 l -0.93794,0.717252 q -0.12874,-0.183911 -0.33104,-0.349431 -0.16552,-0.147128 -0.4046,-0.257475 -0.2207,-0.110346 -0.53335,-0.110346 -0.58851,0 -0.99311,0.165519 -0.40461,0.16552 -0.64369,0.404604 0.0184,0.128738 0.0368,0.275867 0.0184,0.128737 0.0184,0.294257 0.0184,0.147129 0.0184,0.312648 v 6.179405 H 99.632401 V 30.98738 q 0,-0.404604 -0.05517,-0.735643 -0.03678,-0.349431 -0.16552,-0.588515 -0.128737,-0.257475 -0.386212,-0.386213 -0.257475,-0.128737 -0.662079,-0.128737 h -0.183911 v -0.551733 h 1.820715 q 0.6253,0 0.97473,0.16552 0.36782,0.147128 0.57012,0.51495 0.33104,-0.294257 0.90117,-0.570123 0.58851,-0.294258 1.41611,-0.294258 z" />
      <path
         id="path867"
         style="font-style:normal;font-variant:normal;font-weight:bold;font-stretch:normal;font-family:Philosopher;-inkscape-font-specification:Philosopher;stroke-width:0.45977709"
         d="m 111.02022,29.240227 q -0.97473,0 -1.60002,0.901163 -0.60691,0.901163 -0.60691,2.777054 0,3.678217 2.29889,3.678217 0.95633,0 1.54485,-0.441386 0.6069,-0.441386 1.08507,-1.085074 l 0.57012,0.422995 q -0.2023,0.312648 -0.49655,0.662079 -0.27587,0.331039 -0.69887,0.625297 -0.42299,0.275866 -1.01151,0.459777 -0.57012,0.183911 -1.36094,0.183911 -1.10346,0 -1.93106,-0.349431 -0.8276,-0.367822 -1.37933,-0.974727 -0.55173,-0.625297 -0.8276,-1.434505 -0.27587,-0.827599 -0.27587,-1.747153 0,-0.919554 0.27587,-1.728762 0.27587,-0.827599 0.8276,-1.434505 0.55173,-0.625297 1.37933,-0.974727 0.8276,-0.367822 1.93106,-0.367822 1.0483,0 1.76555,0.147129 0.73564,0.147129 1.08507,0.496559 0.34943,0.349431 0.40461,0.937945 0.0552,0.588515 0.0552,1.636807 h -0.55173 q -0.0736,-1.177029 -0.73565,-1.783935 -0.64368,-0.606906 -1.74715,-0.606906 z" />
      <path
         id="path869"
         style="font-style:normal;font-variant:normal;font-weight:bold;font-stretch:normal;font-family:Philosopher;-inkscape-font-specification:Philosopher;stroke-width:0.45977709"
         d="m 121.79912,32.918444 q 0,-0.790817 -0.12874,-1.452896 -0.11034,-0.68047 -0.34943,-1.177029 -0.23908,-0.496559 -0.6069,-0.772426 -0.36782,-0.275866 -0.84599,-0.275866 -0.47817,0 -0.84599,0.275866 -0.36782,0.275867 -0.60691,0.772426 -0.23908,0.496559 -0.36782,1.177029 -0.11035,0.662079 -0.11035,1.452896 0,0.790817 0.11035,1.471287 0.12874,0.662079 0.36782,1.158638 0.23909,0.496559 0.60691,0.772426 0.36782,0.275866 0.84599,0.275866 0.47817,0 0.84599,-0.275866 0.36782,-0.275867 0.6069,-0.772426 0.23909,-0.496559 0.34943,-1.158638 0.12874,-0.68047 0.12874,-1.471287 z m -6.34492,0 q 0,-0.937945 0.29425,-1.765544 0.31265,-0.827599 0.88278,-1.434505 0.57012,-0.606906 1.37933,-0.956336 0.8276,-0.349431 1.8575,-0.349431 1.0299,0 1.83911,0.349431 0.82759,0.34943 1.39772,0.956336 0.57012,0.606906 0.86438,1.434505 0.31265,0.827599 0.31265,1.765544 0,0.937945 -0.31265,1.765544 -0.29426,0.827599 -0.86438,1.434505 -0.57013,0.606905 -1.39772,0.956336 -0.80921,0.349431 -1.83911,0.349431 -1.0299,0 -1.8575,-0.349431 -0.80921,-0.349431 -1.37933,-0.956336 -0.57013,-0.606906 -0.88278,-1.434505 -0.29425,-0.827599 -0.29425,-1.765544 z" />
      <path
         id="path871"
         style="font-style:normal;font-variant:normal;font-weight:bold;font-stretch:normal;font-family:Philosopher;-inkscape-font-specification:Philosopher;stroke-width:0.45977709"
         d="m 126.15809,30.711514 q -0.47817,-1.01151 -0.8276,-1.434505 -0.34943,-0.422995 -0.80921,-0.459777 V 28.44941 q 0.0736,0 0.31265,-0.01839 0.23909,-0.01839 0.36782,-0.01839 0.55174,0 1.0483,0.09196 0.49656,0.09195 0.93794,0.34943 0.44139,0.239084 0.8276,0.698861 0.38621,0.441386 0.71725,1.158639 l 1.61842,3.531088 2.50119,-5.646063 h 0.99311 l -3.9173,8.827721 h -0.66208 z" />
      <path
         id="path873"
         style="font-style:normal;font-variant:normal;font-weight:bold;font-stretch:normal;font-family:Philosopher;-inkscape-font-specification:Philosopher;stroke-width:0.45977709"
         d="m 137.59734,26.57352 q 0,0.478168 -0.29425,0.754034 -0.29426,0.275866 -0.71725,0.275866 -0.69887,0 -1.0483,-0.422994 -0.33104,-0.422995 -0.33104,-0.974728 0,-0.478168 0.29426,-0.754034 0.29426,-0.275867 0.71725,-0.275867 0.69886,0 1.0299,0.422995 0.34943,0.422995 0.34943,0.974728 z m -2.20693,4.41386 q 0,-0.827599 -0.23908,-1.324158 -0.22069,-0.51495 -1.04829,-0.51495 h -0.18391 v -0.551733 h 2.20693 q 0.47817,0 0.79081,0.128738 0.33104,0.110346 0.51496,0.386212 0.2023,0.275867 0.27586,0.735644 0.0736,0.459777 0.0736,1.140247 v 6.252969 h -2.39085 z" />
      <path
         id="path875"
         style="font-style:normal;font-variant:normal;font-weight:bold;font-stretch:normal;font-family:Philosopher;-inkscape-font-specification:Philosopher;stroke-width:0.45977709"
         d="m 145.42419,29.79196 q -0.2023,-0.147129 -0.44138,-0.275867 -0.2023,-0.09196 -0.49656,-0.183911 -0.27587,-0.09195 -0.6253,-0.09195 -0.51495,0 -0.86438,0.275866 -0.34943,0.275867 -0.57012,0.772426 -0.22069,0.496559 -0.31265,1.177029 -0.092,0.662079 -0.092,1.452896 0,0.790817 0.092,1.471287 0.092,0.662079 0.29426,1.158638 0.2023,0.496559 0.53334,0.772426 0.34943,0.275866 0.8276,0.275866 0.42299,0 0.71725,-0.183911 0.31265,-0.183911 0.51495,-0.404604 0.23908,-0.257475 0.42299,-0.606906 z m 0,-2.298886 q 0,-0.827599 -0.23908,-1.324158 -0.22069,-0.514951 -1.04829,-0.514951 h -0.18391 v -0.551732 h 2.20693 q 0.47817,0 0.79081,0.128738 0.33104,0.110346 0.51496,0.386212 0.2023,0.275867 0.27586,0.735644 0.0736,0.459777 0.0736,1.140247 v 9.747275 h -1.56325 l -0.64368,-0.827599 h -0.092 q -0.2023,0.294257 -0.51495,0.51495 -0.25748,0.202302 -0.66208,0.349431 -0.38621,0.147129 -0.93794,0.147129 -0.97473,0 -1.69198,-0.349431 -0.71726,-0.349431 -1.21382,-0.956336 -0.47816,-0.606906 -0.71725,-1.434505 -0.23908,-0.827599 -0.23908,-1.765544 0,-0.937945 0.23908,-1.765544 0.23909,-0.827599 0.73565,-1.434505 0.49655,-0.606906 1.2322,-0.956336 0.75403,-0.349431 1.74715,-0.349431 0.44139,0 0.79082,0.09196 0.36782,0.09195 0.62529,0.18391 0.29426,0.128738 0.51495,0.275867 z" />
    </g>
  </g>
</svg>
